<svg width="2307" height="1024" viewBox="0 0 2307 1024" fill="none" xmlns="http://www.w3.org/2000/svg">
<g clip-path="url(#clip0_280_189)">
<rect width="2307" height="1024" fill="white"/>
<path d="M670.596 481.437C675.92 501.809 659.464 533.756 675.92 560.147C692.376 586.538 741.744 608.299 750.94 628.671C760.136 649.043 729.644 668.489 700.12 680.064C670.112 692.102 641.556 696.732 608.644 702.288C575.732 708.307 537.98 715.252 518.136 700.436C498.776 685.157 496.356 648.58 477.48 612.003C458.604 575.889 422.788 540.238 422.788 507.365C422.304 474.955 457.152 445.323 494.904 434.674C532.656 424.488 572.828 433.285 606.224 442.082C639.136 451.342 665.756 461.065 670.596 481.437Z" fill="url(#paint0_linear_280_189)"/>
<path d="M2160.84 117.885C2155.85 194.553 2129.17 256.471 2078.7 303.537C2028.22 350.603 1955.08 383.525 1871.77 418.555C1789.58 454.293 1695.12 492.037 1599.26 485.39C1503.4 478.744 1402.91 426.896 1398.4 366.059C1391.79 305.118 1478.9 233.773 1465.02 173.128C1450 111.776 1333.66 58.5019 1301.05 6.71774C1267.31 -45.7737 1319.23 -97.9837 1398.03 -127.369C1476.84 -156.754 1584.79 -161.9 1711.35 -160.269C1837.9 -158.638 1983.23 -148.919 2065.78 -98.6013C2147.19 -48.9912 2165.83 41.217 2160.84 117.885Z" fill="url(#paint1_linear_280_189)"/>
<path d="M1409.49 749.136C1420.37 742.367 1455.01 756.396 1482.96 759.024C1510.86 761.901 1531.72 753.568 1545.92 758.371C1559.83 762.869 1567.09 780.503 1572.05 795.944C1577.02 811.385 1579.42 824.33 1577.84 837.083C1576.3 849.589 1570.74 862.153 1560.2 870.771C1549.28 879.579 1533.34 884.689 1514.52 889.037C1495.75 893.137 1473.73 896.666 1459.24 889.766C1444.74 882.866 1437.44 865.48 1432.76 850.344C1428.4 835.265 1426.65 822.435 1419.14 802.457C1411.63 782.478 1398.64 755.656 1409.49 749.136Z" fill="url(#paint2_linear_280_189)"/>
</g>
<defs>
<linearGradient id="paint0_linear_280_189" x1="422.783" y1="709.287" x2="698.131" y2="383.993" gradientUnits="userSpaceOnUse">
<stop stop-color="#AA03F9"/>
<stop offset="1" stop-color="#E4B438"/>
</linearGradient>
<linearGradient id="paint1_linear_280_189" x1="966" y1="135.082" x2="2396.01" y2="199.251" gradientUnits="userSpaceOnUse">
<stop offset="0.0364583" stop-color="#E2B822"/>
<stop offset="0.822917" stop-color="#8500E0"/>
</linearGradient>
<linearGradient id="paint2_linear_280_189" x1="1565.11" y1="909.726" x2="1456.17" y2="708.638" gradientUnits="userSpaceOnUse">
<stop stop-color="#930FC1"/>
<stop offset="1" stop-color="#AF6309"/>
</linearGradient>
<clipPath id="clip0_280_189">
<rect width="2307" height="1024" fill="white"/>
</clipPath>
</defs>
</svg>
