<svg width="44" height="44" viewBox="0 0 44 44" fill="none" xmlns="http://www.w3.org/2000/svg">
<path d="M40.4906 11.4573C38.5788 8.09772 35.9856 5.43791 32.7102 3.47731C29.4344 1.5166 25.8582 0.536499 21.9791 0.536499C18.1004 0.536499 14.523 1.5169 11.2479 3.47731C7.97228 5.43781 5.37917 8.09772 3.46738 11.4573C1.55589 14.8168 0.600098 18.4854 0.600098 22.463C0.600098 27.2411 1.95925 31.5376 4.67824 35.3537C7.39694 39.1701 10.9091 41.8109 15.2144 43.2764C15.7156 43.3718 16.0865 43.3047 16.3278 43.0768C16.5691 42.8486 16.6896 42.5628 16.6896 42.2206C16.6896 42.1635 16.6848 41.6498 16.6755 40.6789C16.666 39.708 16.6615 38.861 16.6615 38.1383L16.0212 38.2519C15.613 38.3286 15.098 38.3611 14.4762 38.3519C13.8548 38.343 13.2096 38.2762 12.5416 38.152C11.8734 38.0289 11.2518 37.7434 10.6765 37.2961C10.1014 36.8488 9.69316 36.2633 9.45185 35.5405L9.17349 34.8835C8.98794 34.4461 8.69583 33.9602 8.29677 33.4276C7.8977 32.8945 7.49414 32.5331 7.08591 32.3428L6.89101 32.1997C6.76114 32.1046 6.64063 31.9899 6.52918 31.8568C6.41784 31.7237 6.33448 31.5905 6.2788 31.4571C6.22303 31.3236 6.26925 31.2141 6.41794 31.1282C6.56662 31.0423 6.83533 31.0006 7.22524 31.0006L7.78177 31.0859C8.15295 31.1622 8.61208 31.3901 9.15974 31.771C9.70711 32.1516 10.1571 32.6464 10.5097 33.2552C10.9368 34.0358 11.4513 34.6306 12.0547 35.0399C12.6577 35.4492 13.2656 35.6535 13.8779 35.6535C14.4902 35.6535 15.019 35.6059 15.4646 35.5112C15.9097 35.416 16.3273 35.2729 16.7172 35.0827C16.8842 33.8069 17.3389 32.8268 18.081 32.1417C17.0233 32.0277 16.0724 31.856 15.2278 31.6277C14.3836 31.3991 13.5113 31.0281 12.6113 30.5137C11.7109 30 10.964 29.3621 10.3703 28.6011C9.77653 27.8397 9.28922 26.8401 8.90907 25.6032C8.52872 24.3658 8.33849 22.9383 8.33849 21.3205C8.33849 19.017 9.0717 17.0568 10.5378 15.4388C9.85102 13.707 9.91585 11.7656 10.7325 9.61482C11.2707 9.44332 12.0689 9.57202 13.1265 10.0001C14.1844 10.4284 14.959 10.7953 15.4509 11.0995C15.9429 11.4036 16.3371 11.6613 16.6341 11.8703C18.3603 11.3756 20.1418 11.1282 21.9789 11.1282C23.816 11.1282 25.5978 11.3756 27.3241 11.8703L28.3819 11.1854C29.1053 10.7284 29.9595 10.3096 30.9425 9.92892C31.926 9.54842 32.6782 9.44362 33.198 9.61512C34.0328 11.766 34.1072 13.7073 33.4202 15.4391C34.8862 17.0571 35.6197 19.0178 35.6197 21.3208C35.6197 22.9386 35.4288 24.3706 35.0491 25.6175C34.6688 26.8646 34.1773 27.8632 33.5744 28.6154C32.9708 29.3675 32.219 30.0004 31.3191 30.514C30.419 31.028 29.5464 31.399 28.7022 31.6276C27.8577 31.8562 26.9067 32.028 25.849 32.1422C26.8137 32.9984 27.2961 34.3499 27.2961 36.1961V42.2198C27.2961 42.562 27.4122 42.8477 27.6444 43.076C27.8764 43.3039 28.2427 43.371 28.7438 43.2755C33.0497 41.8102 36.5619 39.1693 39.2805 35.3529C41.9988 31.5368 43.3584 27.2403 43.3584 22.4622C43.3575 18.4851 42.4012 14.8168 40.4906 11.4573Z" fill="white"/>
</svg>
