<svg width="593" height="792" viewBox="0 0 593 792" fill="none" xmlns="http://www.w3.org/2000/svg">
<path opacity="0.0946098" d="M276.857 138.116L357.963 25.0101C366.144 13.6007 376.386 6.328 387.107 3.96991C397.764 1.62579 409.195 4.06726 420.031 12.6516C453.613 39.256 498.988 82.6639 519.08 119.643C522.368 125.696 525.432 132.205 528.532 138.902C528.929 139.76 529.326 140.621 529.725 141.484C532.429 147.338 535.183 153.301 538.127 159.11C544.876 172.425 552.758 185.209 563.782 194.571C580.902 209.108 589.278 231.469 585.923 253.675L578.087 305.545C577.163 311.658 576.855 317.847 577.166 324.021L583.281 445.334C583.616 451.982 584.939 458.482 586.331 464.799C586.513 465.625 586.696 466.449 586.879 467.269C588.103 472.771 589.296 478.132 589.946 483.555C590.537 488.489 590.44 493.5 589.656 498.401C588.886 503.217 587.678 507.966 586.438 512.843C586.262 513.534 586.085 514.228 585.909 514.925C584.505 520.487 583.143 526.214 582.555 532.096L559.71 760.829C558.607 771.871 554.128 780.845 544.626 782.98C527.612 786.801 499.065 788.428 472.94 789.085C451.569 789.622 432.017 789.506 422.044 789.447C419.858 789.434 418.132 789.424 416.948 789.424H155.813C154.221 789.424 152.641 789.325 151.08 789.13C137.918 787.49 125.724 780.944 113.046 774.03C112.825 773.91 112.604 773.789 112.383 773.669C100.08 766.957 87.2909 759.981 73.3368 757.966L62.543 756.408C30.2705 751.749 5.51126 725.387 2.88275 692.886C0.365185 661.757 21.7373 630.542 52.4763 606.394C83.1347 582.31 122.391 565.854 154.218 563.956C223.4 559.831 292.205 533.958 329.026 489.013C347.491 466.475 357.889 439.153 356.185 407.528C354.483 375.951 340.73 340.316 311.336 301.047C304.962 292.53 296.467 285.489 287.254 280.352L271.14 271.366C257.099 263.536 246.453 248.76 241.057 232.076C235.66 215.392 235.628 197.151 242.364 182.545C246.412 173.767 251.968 166.86 258.086 160.027C259.466 158.487 260.881 156.943 262.314 155.38C267.18 150.07 272.254 144.535 276.857 138.116Z" stroke="url(#paint0_linear_149_276)" stroke-width="5"/>
<defs>
<linearGradient id="paint0_linear_149_276" x1="-14" y1="389" x2="594" y2="389" gradientUnits="userSpaceOnUse">
<stop stop-color="#FFF500"/>
<stop offset="1" stop-color="#7000FF"/>
</linearGradient>
</defs>
</svg>
