<svg width="525" height="717" viewBox="0 0 525 717" fill="none" xmlns="http://www.w3.org/2000/svg">
<path opacity="0.0946098" d="M272 29.5117H160.966C152.532 29.5117 130.466 33.4442 113.016 40.3709C95.4921 47.3273 81.439 62.3504 65.4705 72.3751L45.5244 84.8969C29.5198 94.9444 18.6502 110.159 16.7548 128.961C10.179 194.19 1.61196 349.057 3.19032 398.186C3.50259 407.906 4.98493 417.56 5.60062 427.266L17.307 611.802C19.4229 645.157 43.9619 672.795 76.8322 678.845V678.845C101.217 683.332 119.212 707.321 143.403 712.756C145.382 713.201 147.399 713.429 149.439 713.429H372.06C383.421 713.429 454.416 714.85 482.944 705.888C491.795 703.108 494.793 693.886 495.517 684.637L515.735 426.568C516.459 417.319 519.032 408.311 520.726 399.19C522.322 390.592 522.419 381.561 521.015 372.897C519.35 362.628 516.618 352.46 516.207 342.065L510.67 202.023C510.483 197.3 510.668 192.57 511.225 187.876L518.718 124.646C521.435 101.716 513.978 78.7447 498.31 61.7827V61.7827C479.775 41.7173 468.887 6.5915 441.728 3.66743C389.75 -1.9287 282.013 29.5117 272 29.5117Z" stroke="url(#paint0_linear_149_270)" stroke-width="5"/>
<defs>
<linearGradient id="paint0_linear_149_270" x1="3" y1="358.256" x2="523" y2="358.256" gradientUnits="userSpaceOnUse">
<stop stop-color="#FFB800"/>
<stop offset="1" stop-color="#AD00FF"/>
</linearGradient>
</defs>
</svg>
