<svg width="1032" height="906" viewBox="0 0 1032 906" fill="none" xmlns="http://www.w3.org/2000/svg">
<path d="M724.381 47.8314C809.871 63.0396 920.418 67.602 973.481 120.831C1026.54 172.539 1022.12 274.434 1025.07 376.328C1029.49 479.744 1041.28 584.681 1014.75 686.576C989.695 788.47 926.314 885.803 837.877 902.532C749.439 919.261 635.944 856.907 522.449 856.907C408.953 858.428 293.984 922.303 212.916 901.011C131.848 879.72 83.2076 771.741 55.2023 669.847C25.723 567.952 16.8793 472.14 8.03548 368.724C-0.808297 266.829 -11.126 158.851 43.4106 104.102C97.9472 47.8314 215.864 43.2689 307.25 31.1024C397.162 17.415 460.542 -2.35564 520.975 0.685999C581.407 3.72764 640.366 31.1024 724.381 47.8314Z" fill="url(#paint0_linear_181_271)"/>
<defs>
<linearGradient id="paint0_linear_181_271" x1="0.949951" y1="905.383" x2="898.375" y2="-116.554" gradientUnits="userSpaceOnUse">
<stop stop-color="#F47B53"/>
<stop offset="1" stop-color="#6637A8"/>
</linearGradient>
</defs>
</svg>
