<svg width="1200" height="969" viewBox="0 0 1200 969" fill="none" xmlns="http://www.w3.org/2000/svg">
<path opacity="0.0946098" d="M853.318 38.8814L365.24 -5.68535e-06C340.567 -5.68535e-06 265.433 8.91849 225.308 24.0633C207.855 30.6506 191.872 42.4787 174.461 49.1757L68.2513 90.0291C50.7879 96.7464 37.4816 109.528 34.062 127.924C18.7343 210.379 -3.16327 446.7 0.382142 521.13C1.07574 535.691 4.6479 550.3 6.14916 564.8L33.944 833.259C38.2993 875.325 71.3557 908.685 113.38 913.423L219.691 925.412C246 928.378 268.687 945.125 292.082 957.521C305.87 964.826 321.897 968.883 338.587 968.883H853.318C880.698 968.883 1057.87 971.07 1117.52 956.508C1130.98 953.225 1137.15 940.721 1138.91 926.985L1185.37 563.605C1187.13 549.87 1193.01 537.02 1197.04 523.772C1200.71 511.686 1200.97 498.994 1197.81 486.804C1193.87 471.604 1187.51 456.797 1186.5 441.127L1173.79 244.148C1173.37 237.628 1172.24 231.174 1170.42 224.899L1121.94 57.574C1118.73 46.501 1108.59 38.8814 1097.06 38.8814V38.8814C1078.26 38.8814 1067.27 11.737 1049.87 4.61344C1009.62 -11.8596 878.028 38.8814 853.318 38.8814Z" fill="url(#paint0_linear_140_14)"/>
<defs>
<linearGradient id="paint0_linear_140_14" x1="-8.08085" y1="503.901" x2="1200.04" y2="503.901" gradientUnits="userSpaceOnUse">
<stop stop-color="#D4145A"/>
<stop offset="1" stop-color="#2E3192"/>
</linearGradient>
</defs>
</svg>
